<svg xmlns="http://www.w3.org/2000/svg" xmlns:xlink="http://www.w3.org/1999/xlink" width="1000" zoomAndPan="magnify" viewBox="0 0 750 749.999995" height="1000" preserveAspectRatio="xMidYMid meet" version="1.0"><defs><clipPath id="9825908f73"><path d="M 14.0625 351 L 166 351 L 166 458 L 14.0625 458 Z M 14.0625 351 " clip-rule="nonzero"/></clipPath></defs><path fill="#fedc97" d="M 321.832031 368.878906 C 321.832031 394.851562 342.878906 415.882812 368.835938 415.882812 C 394.796875 415.882812 415.839844 394.851562 415.839844 368.878906 C 415.839844 342.921875 394.796875 321.886719 368.835938 321.886719 C 342.878906 321.886719 321.832031 342.921875 321.832031 368.878906 " fill-opacity="1" fill-rule="nonzero"/><path fill="#fedc97" d="M 139.976562 492.425781 C 128.382812 504.027344 128.382812 522.824219 139.976562 534.417969 C 151.578125 546.019531 170.378906 546.019531 181.976562 534.417969 C 193.570312 522.824219 193.570312 504.027344 181.976562 492.425781 C 170.378906 480.832031 151.578125 480.832031 139.976562 492.425781 " fill-opacity="1" fill-rule="nonzero"/><path fill="#fedc97" d="M 661.492188 575.988281 C 571.257812 569.519531 524.800781 523.050781 518.332031 432.8125 C 522.824219 495.421875 487.207031 573.929688 450.996094 630.140625 C 433.894531 627.304688 415.839844 625.425781 396.886719 624.679688 C 421.726562 528.300781 467.285156 419.671875 534.574219 361.398438 C 426.328125 455.121094 322.339844 455.121094 214.097656 361.398438 C 281.488281 419.742188 327.066406 528.59375 351.878906 625.074219 C 332.890625 626.199219 314.941406 628.511719 298.007812 631.796875 C 262.140625 575.710938 227.222656 498.058594 231.675781 436.03125 C 225.199219 526.265625 178.734375 572.722656 88.503906 579.210938 C 146.070312 575.0625 217.097656 604.859375 271.851562 637.835938 C 185.4375 661.117188 129.453125 710.070312 102.832031 750.015625 L 653.742188 750.015625 C 630.503906 706.8125 569.546875 656.988281 476.984375 635.324219 C 531.910156 602.0625 603.523438 571.820312 661.492188 575.988281 " fill-opacity="1" fill-rule="nonzero"/><path fill="#fedc97" d="M 605.109375 526.292969 C 616.707031 514.691406 616.707031 495.898438 605.109375 484.300781 C 593.515625 472.699219 574.699219 472.699219 563.105469 484.300781 C 551.503906 495.898438 551.503906 514.691406 563.105469 526.292969 C 574.699219 537.890625 593.515625 537.890625 605.109375 526.292969 " fill-opacity="1" fill-rule="nonzero"/><path fill="#ebcc90" d="M 735.648438 354.628906 C 735.648438 354.628906 686.246094 489.535156 599.355469 450 L 663.839844 395.949219 L 584.710938 424.546875 C 594.171875 329.566406 735.648438 354.628906 735.648438 354.628906 " fill-opacity="1" fill-rule="nonzero"/><g clip-path="url(#9825908f73)"><path fill="#ebcc90" d="M 14.351562 354.433594 C 14.351562 354.433594 155.894531 329.753906 165.09375 424.773438 L 86.046875 395.949219 L 150.382812 450.179688 C 63.382812 489.480469 14.351562 354.433594 14.351562 354.433594 " fill-opacity="1" fill-rule="nonzero"/></g><path fill="#f9da82" d="M 667.671875 195.585938 C 667.671875 195.585938 667.265625 401.746094 530.699219 391.078125 L 591.128906 286.546875 L 498.46875 363.953125 C 464.601562 231.21875 667.671875 195.585938 667.671875 195.585938 " fill-opacity="1" fill-rule="nonzero"/><path fill="#f9da82" d="M 82.328125 198.140625 C 82.328125 198.140625 279.628906 233.339844 246.367188 362.261719 L 156.492188 286.773438 L 214.953125 388.558594 C 82.167969 398.558594 82.328125 198.140625 82.328125 198.140625 " fill-opacity="1" fill-rule="nonzero"/><path fill="#ebcc90" d="M 510.175781 164.433594 C 510.175781 164.433594 548.570312 270.570312 476.308594 290.660156 L 487.820312 225.5625 L 454.648438 282.746094 C 412.375 220.785156 510.175781 164.433594 510.175781 164.433594 " fill-opacity="1" fill-rule="nonzero"/><path fill="#ebcc90" d="M 240.132812 163.492188 C 240.132812 163.492188 339.148438 220.929688 296.109375 283.628906 L 262.617188 225.546875 L 274.113281 291.585938 C 200.890625 271.023438 240.132812 163.492188 240.132812 163.492188 " fill-opacity="1" fill-rule="nonzero"/><path fill="#f9da82" d="M 375.242188 -0.0273438 C 375.242188 -0.0273438 522.121094 175.734375 398.273438 264.171875 L 375.054688 132.054688 L 351.46875 264.101562 C 227.863281 175.328125 375.242188 -0.0273438 375.242188 -0.0273438 " fill-opacity="1" fill-rule="nonzero"/></svg>